# xmcd
#
# Track frame offsets:
#	150
#	18831
#	28779
#	45828
#	53793
#	69189
#	79875
#	94836
#	105897
#	114921
#	122889
#	135273
#	147909
#	166548
#	177288
#	192486
#
# Disc length: 2755 seconds
#
# Revision: 1
# Processed by: cddbd v1.5.2PL0 Copyright (c) Steve Scherf et al.
# Submitted via: audiograbber 1.83.01
#
DISCID=bf0ac110
DTITLE=Mavis Sellars - Because He Lives
DYEAR=2015
DGENRE=Country gospel
TTITLE0=The Old Rugged Cross
TTITLE1=What A Friend
TTITLE2=O Holy Night
TTITLE3=Amazing Grace
TTITLE4=You Raise Me Up
TTITLE5=Precious Lord
TTITLE6=In The Garden
TTITLE7=Beyond The Sunset
TTITLE8=23rd Psalm
TTITLE9=To God Be The Glory
TTITLE10=How Great Hou Art
TTITLE11=Ill Walk With God
TTITLE12=Sweet Bye And Bye
TTITLE13=Abide With Me
TTITLE14=Because He Lives
TTITLE15=One Day At A Time
EXTD=
EXTT0=
EXTT1=
EXTT2=
EXTT3=
EXTT4=
EXTT5=
EXTT6=
EXTT7=
EXTT8=
EXTT9=
EXTT10=
EXTT11=
EXTT12=
EXTT13=
EXTT14=
EXTT15=
PLAYORDER=
